<svg width="20" height="28" viewBox="0 0 20 28" fill="none" xmlns="http://www.w3.org/2000/svg">
<path d="M4.64844 10.9922C4.98698 11.3307 5.3776 11.5 5.82031 11.5C6.26302 11.5 6.65365 11.3307 6.99219 10.9922C7.33073 10.6536 7.5 10.263 7.5 9.82031C7.5 9.3776 7.33073 9 6.99219 8.6875C6.65365 8.34896 6.26302 8.17969 5.82031 8.17969C5.3776 8.17969 4.98698 8.34896 4.64844 8.6875C4.33594 9 4.17969 9.3776 4.17969 9.82031C4.17969 10.263 4.33594 10.6536 4.64844 10.9922ZM16.6797 6.5C16.9141 6.5 17.1094 6.57812 17.2656 6.73438C17.4219 6.89062 17.5 7.08594 17.5 7.32031V12.3203C17.5 12.5547 17.4219 12.763 17.2656 12.9453C17.1094 13.1016 16.9141 13.1797 16.6797 13.1797H3.32031C3.08594 13.1797 2.89062 13.1016 2.73438 12.9453C2.57812 12.763 2.5 12.5547 2.5 12.3203V7.32031C2.5 7.08594 2.57812 6.89062 2.73438 6.73438C2.89062 6.57812 3.08594 6.5 3.32031 6.5H16.6797ZM4.64844 19.3516C4.98698 19.6641 5.3776 19.8203 5.82031 19.8203C6.26302 19.8203 6.65365 19.6641 6.99219 19.3516C7.33073 19.013 7.5 18.6224 7.5 18.1797C7.5 17.737 7.33073 17.3464 6.99219 17.0078C6.65365 16.6693 6.26302 16.5 5.82031 16.5C5.3776 16.5 4.98698 16.6693 4.64844 17.0078C4.33594 17.3464 4.17969 17.737 4.17969 18.1797C4.17969 18.6224 4.33594 19.013 4.64844 19.3516ZM16.6797 14.8203C16.9141 14.8203 17.1094 14.9115 17.2656 15.0938C17.4219 15.25 17.5 15.4453 17.5 15.6797V20.6797C17.5 20.9141 17.4219 21.1094 17.2656 21.2656C17.1094 21.4219 16.9141 21.5 16.6797 21.5H3.32031C3.08594 21.5 2.89062 21.4219 2.73438 21.2656C2.57812 21.1094 2.5 20.9141 2.5 20.6797V15.6797C2.5 15.4453 2.57812 15.25 2.73438 15.0938C2.89062 14.9115 3.08594 14.8203 3.32031 14.8203H16.6797Z" fill="#6366F1"/>
</svg>
