<svg width="15" height="15" viewBox="0 0 15 15" fill="none" xmlns="http://www.w3.org/2000/svg">
<path d="M11.6797 11.6797V3.32031H3.32031V11.6797H11.6797ZM15 6.67969H13.3203V8.32031H15V10H13.3203V11.6797C13.3203 12.1224 13.151 12.513 12.8125 12.8516C12.5 13.1641 12.1224 13.3203 11.6797 13.3203H10V15H8.32031V13.3203H6.67969V15H5V13.3203H3.32031C2.8776 13.3203 2.48698 13.1641 2.14844 12.8516C1.83594 12.513 1.67969 12.1224 1.67969 11.6797V10H0V8.32031H1.67969V6.67969H0V5H1.67969V3.32031C1.67969 2.8776 1.83594 2.5 2.14844 2.1875C2.48698 1.84896 2.8776 1.67969 3.32031 1.67969H5V0H6.67969V1.67969H8.32031V0H10V1.67969H11.6797C12.1224 1.67969 12.5 1.84896 12.8125 2.1875C13.151 2.5 13.3203 2.8776 13.3203 3.32031V5H15V6.67969ZM8.32031 8.32031V6.67969H6.67969V8.32031H8.32031ZM10 5V10H5V5H10Z" fill="#F97316"/>
</svg>
