<svg width="16" height="24" viewBox="0 0 16 24" fill="none" xmlns="http://www.w3.org/2000/svg">
<path d="M11.7812 8.21875L13.3438 6.65625V11.3438H8.65625L10.8125 9.1875C10.0208 8.39583 9.08333 8 8 8C6.89583 8 5.94792 8.39583 5.15625 9.1875C4.38542 9.95833 4 10.8958 4 12C4 13.1042 4.38542 14.0521 5.15625 14.8438C5.94792 15.6146 6.89583 16 8 16C8.77083 16 9.52083 15.7396 10.25 15.2188C11 14.6979 11.5104 14.0729 11.7812 13.3438H13.1562C12.8646 14.5104 12.2396 15.4688 11.2812 16.2188C10.3229 16.9688 9.22917 17.3438 8 17.3438C6.54167 17.3438 5.29167 16.8229 4.25 15.7812C3.20833 14.7396 2.6875 13.4792 2.6875 12C2.6875 10.5208 3.20833 9.26042 4.25 8.21875C5.29167 7.17708 6.54167 6.65625 8 6.65625C8.625 6.65625 9.30208 6.8125 10.0312 7.125C10.7812 7.41667 11.3646 7.78125 11.7812 8.21875Z" fill="#10B981"/>
</svg>
